<svg width="1300" height="1495" viewBox="0 0 1300 1495" fill="none" xmlns="http://www.w3.org/2000/svg">
<path d="M1300 699.881L1105.51 574.995L1299.77 420.859L649.999 0L0.223437 420.859L194.489 574.995L0 699.881L194.489 854.195L0 979.081L649.999 1494.81L1300 979.081L1105.51 854.195L1300 699.881ZM1149.72 428.979L1020.79 531.279L907.995 445.876L1028.53 350.486L1149.72 428.979ZM579.964 594.631L469.365 682.161L343.402 582.218L457.213 497.489L579.964 594.631ZM529.386 443.752L645.982 356.948L765.729 447.612L649.999 539.205L529.386 443.752ZM649.999 650.057L760.686 737.656L649.999 825.479L539.311 737.656L649.999 650.057ZM720.036 594.628L837.318 501.812L950.207 587.283L830.635 682.155L720.036 594.628ZM951.499 300.593L836.409 391.673L718.871 302.68L828.599 220.988L951.499 300.593ZM649.999 105.306L750.345 170.3L646.32 247.744L546.626 172.26L649.999 105.306ZM468.713 222.733L573.428 302.016L458.45 387.611L348.496 300.593L468.713 222.733ZM150.274 428.979L271.466 350.483L386.274 441.339L272.558 526L150.274 428.979ZM150.498 708.359L267.711 633.092L649.999 936.415L1032.29 633.092L1149.5 708.359L649.999 1104.68L150.498 708.359ZM1149.5 987.559L649.999 1383.88L150.498 987.559L267.711 912.292L649.999 1215.61L1032.29 912.292L1149.5 987.559Z" fill="#FF9811"/>
<path d="M1300 699.881L1105.51 574.995L1299.77 420.859L649.999 0L0.223437 420.859L194.489 574.995L0 699.881L194.489 854.195L0 979.081L649.999 1494.81L1300 979.081L1105.51 854.195L1300 699.881ZM1149.72 428.979L1020.79 531.279L907.995 445.876L1028.53 350.486L1149.72 428.979ZM579.964 594.631L469.365 682.161L343.402 582.218L457.213 497.489L579.964 594.631ZM529.386 443.752L645.982 356.948L765.729 447.612L649.999 539.205L529.386 443.752ZM649.999 650.057L760.686 737.656L649.999 825.479L539.311 737.656L649.999 650.057ZM720.036 594.628L837.318 501.812L950.207 587.283L830.635 682.155L720.036 594.628ZM951.499 300.593L836.409 391.673L718.871 302.68L828.599 220.988L951.499 300.593ZM649.999 105.306L750.345 170.3L646.32 247.744L546.626 172.26L649.999 105.306ZM468.713 222.733L573.428 302.016L458.45 387.611L348.496 300.593L468.713 222.733ZM150.274 428.979L271.466 350.483L386.274 441.339L272.558 526L150.274 428.979ZM150.498 708.359L267.711 633.092L649.999 936.415L1032.29 633.092L1149.5 708.359L649.999 1104.68L150.498 708.359ZM1149.5 987.559L649.999 1383.88L150.498 987.559L267.711 912.292L649.999 1215.61L1032.29 912.292L1149.5 987.559Z" fill="url(#paint0_linear)"/>
<defs>
<linearGradient id="paint0_linear" x1="650" y1="0" x2="650" y2="1494.81" gradientUnits="userSpaceOnUse">
<stop stop-color="#CCA568"/>
<stop offset="1" stop-color="white" stop-opacity="0"/>
</linearGradient>
</defs>
</svg>
