<svg width="1601" height="1713" viewBox="0 0 1601 1713" fill="none" xmlns="http://www.w3.org/2000/svg">
<path d="M1511.19 927.273H1422.31H800.136H177.963H89.0797C61.4673 927.273 36.7995 938.864 20.4917 957.043C13.243 965.125 7.65175 974.508 4.19161 984.756C1.59459 992.442 0.196777 1000.61 0.196777 1009.08V1718.17C0.196777 1720.45 0.326639 1722.69 0.521416 1724.92C0.586341 1725.62 0.685634 1726.32 0.769655 1727.02C0.941516 1728.55 1.15539 1730.06 1.42273 1731.56C1.56404 1732.35 1.72062 1733.12 1.88484 1733.9C2.1942 1735.34 2.53791 1736.76 2.92747 1738.18C3.12224 1738.9 3.30557 1739.62 3.53089 1740.34C4.03884 1742.01 4.61553 1743.65 5.23805 1745.28C5.38699 1745.69 5.51685 1746.1 5.67726 1746.49C6.47546 1748.5 7.37295 1750.46 8.33919 1752.39C8.61035 1752.93 8.91971 1753.46 9.20614 1754C9.9356 1755.38 10.6994 1756.74 11.5129 1758.08C11.9177 1758.75 12.3417 1759.4 12.7618 1760.05C13.5485 1761.26 14.3544 1762.44 15.2022 1763.6C15.6567 1764.23 16.1073 1764.86 16.5847 1765.47C17.5395 1766.71 18.5478 1767.92 19.5789 1769.11C19.9838 1769.57 20.3657 1770.06 20.782 1770.51C22.2409 1772.12 23.7571 1773.69 25.3459 1775.18C25.6667 1775.49 26.0104 1775.76 26.3426 1776.07C27.6335 1777.26 28.9549 1778.41 30.3298 1779.53C30.9218 1780.01 31.5252 1780.46 32.1325 1780.92C33.3126 1781.83 34.5042 1782.71 35.7339 1783.56C36.3985 1784.01 37.0668 1784.47 37.7428 1784.91C38.3882 1785.33 39.0566 1785.72 39.7173 1786.12C40.378 1786.52 41.0196 1786.95 41.6918 1787.33C42.0011 1787.51 42.3067 1787.69 42.616 1787.87C42.9254 1788.05 43.2271 1788.23 43.5403 1788.4C45.5033 1789.48 47.4969 1790.51 49.5554 1791.45C56.3229 1794.55 63.5755 1796.88 71.1832 1798.31C76.9654 1799.4 82.95 1799.98 89.0912 1799.98H800.147H1511.2C1517.34 1799.98 1523.33 1799.4 1529.11 1798.31C1536.72 1796.88 1543.98 1794.55 1550.74 1791.45C1552.8 1790.51 1554.79 1789.48 1556.75 1788.4C1557.38 1788.06 1557.99 1787.68 1558.61 1787.32C1559.95 1786.54 1561.26 1785.74 1562.55 1784.9C1563.23 1784.46 1563.9 1784 1564.56 1783.54C1565.79 1782.69 1566.99 1781.81 1568.16 1780.91C1568.76 1780.45 1569.37 1779.99 1569.95 1779.51C1571.33 1778.4 1572.65 1777.24 1573.95 1776.05C1574.28 1775.75 1574.62 1775.48 1574.94 1775.17C1576.53 1773.67 1578.04 1772.1 1579.5 1770.5C1579.92 1770.05 1580.3 1769.56 1580.71 1769.1C1581.74 1767.91 1582.75 1766.7 1583.7 1765.46C1584.18 1764.85 1584.63 1764.21 1585.08 1763.59C1585.93 1762.43 1586.74 1761.25 1587.52 1760.04C1587.95 1759.39 1588.37 1758.74 1588.77 1758.07C1589.59 1756.74 1590.35 1755.37 1591.08 1753.99C1591.37 1753.45 1591.68 1752.92 1591.95 1752.38C1592.92 1750.45 1593.81 1748.49 1594.61 1746.48C1594.77 1746.08 1594.9 1745.66 1595.06 1745.25C1595.68 1743.63 1596.25 1741.99 1596.76 1740.32C1596.98 1739.61 1597.16 1738.88 1597.36 1738.16C1597.75 1736.75 1598.1 1735.32 1598.41 1733.87C1598.57 1733.1 1598.73 1732.32 1598.87 1731.54C1599.14 1730.04 1599.35 1728.52 1599.52 1727C1599.6 1726.3 1599.7 1725.61 1599.77 1724.9C1599.96 1722.67 1600.09 1720.43 1600.09 1718.15V1009.09C1600.07 963.905 1560.28 927.273 1511.19 927.273Z" fill="#ECB45C"/>
<path d="M0.200134 1009.09C0.200134 963.902 39.9956 927.269 89.0831 927.269H177.966H800.139H1422.31H1511.2C1560.28 927.269 1600.08 963.902 1600.08 1009.09V629.359C1598.85 673.561 1559.63 709.065 1511.31 709.065C1511.27 709.065 1511.23 709.065 1511.2 709.065H1422.31H918.647C869.56 709.065 829.764 672.432 829.764 627.246V163.634V81.819C829.764 48.7265 851.415 18.8894 884.634 6.22968C896.064 1.87031 908.08 -0.101953 919.972 0.0597655C919.529 0.0562499 919.09 0 918.647 0H89.0793C39.9956 0 0.200134 36.6257 0.200134 81.819V1009.09Z" fill="#E0E0E2"/>
<path d="M829.765 81.819V163.638V627.253C829.765 672.439 869.56 709.072 918.648 709.072H1422.31H1511.2C1511.23 709.072 1511.27 709.072 1511.31 709.072C1559.63 709.072 1598.85 673.564 1600.08 629.366C1600.1 628.656 1600.2 627.97 1600.2 627.257C1600.2 610.297 1594.51 594.6 1584.92 581.543C1584.91 581.533 1584.9 581.515 1584.89 581.504C1583.37 579.437 1581.74 577.451 1580.04 575.528C1579.89 575.37 1579.76 575.204 1579.62 575.053C1578 573.253 1576.28 571.534 1574.51 569.871C1574.23 569.615 1573.96 569.354 1573.68 569.098C1572.89 568.388 1572.17 567.625 1571.37 566.943L981.495 23.9625C979.651 22.2609 977.722 20.6789 975.748 19.1566C975.144 18.6925 974.522 18.2566 973.911 17.8101C972.478 16.7625 971.008 15.75 969.507 14.7832C968.778 14.3156 968.048 13.8445 967.303 13.398C965.738 12.4558 964.126 11.5664 962.487 10.7086C961.846 10.3711 961.212 10.0054 960.566 9.68201C958.428 8.62381 956.224 7.6535 953.978 6.75702C953.073 6.39842 952.149 6.08202 951.229 5.74803C949.747 5.20663 948.254 4.70038 946.73 4.23632C945.691 3.91991 944.656 3.61405 943.613 3.32929C941.902 2.87226 940.165 2.46796 938.415 2.09531C937.644 1.9371 936.88 1.73671 936.105 1.59257C933.634 1.13554 931.117 0.791012 928.581 0.534372C927.806 0.453513 927.031 0.40781 926.251 0.348044C924.17 0.18281 922.081 0.0878887 919.965 0.0527325C908.072 -0.112502 896.057 1.86328 884.627 6.22264C851.423 18.8894 829.765 48.7265 829.765 81.819Z" fill="#C6C5CA"/>
<path d="M575.96 1285.22H552.277V1430.01H575.96C591.397 1430.01 600.33 1425.84 600.33 1404.49V1310.43C600.337 1289.24 591.767 1285.22 575.96 1285.22Z" fill="#FF9811"/>
<path d="M575.96 1222.71H516.48C497.537 1222.71 482.692 1235.55 482.692 1251.95V1462.98C482.692 1479.27 497.85 1492.53 516.48 1492.53H575.96C634.794 1492.53 669.918 1459.62 669.918 1404.5V1310.44C669.918 1255.51 634.794 1222.71 575.96 1222.71ZM600.337 1404.5C600.337 1425.85 591.4 1430.02 575.967 1430.02H552.285V1285.22H575.967C591.775 1285.22 600.337 1289.24 600.337 1310.44V1404.5Z" fill="#57565C"/>
<path d="M1049.84 1319.88C1021 1310.13 1017.86 1306.9 1017.86 1298.38C1017.86 1293.11 1017.86 1284.29 1042.89 1284.29C1057.34 1284.29 1065.01 1287.92 1071.16 1290.84C1076.33 1293.29 1082.17 1296.06 1089.95 1296.06C1109.95 1296.06 1123.4 1278.86 1123.4 1262.79C1123.4 1230.67 1073.01 1222.1 1043.24 1222.1C984.658 1222.1 948.269 1252.03 948.269 1300.22C948.269 1353.97 992.289 1369.2 1021.41 1379.27C1052.13 1389.89 1059.86 1394.73 1059.86 1410.99C1059.86 1421.56 1057.83 1431.87 1033.49 1431.87C1014.98 1431.87 1008.75 1425.69 1002.16 1419.15C996.955 1413.99 989.096 1406.19 976.015 1406.19C956.675 1406.19 942.227 1423.75 942.227 1439.46C942.227 1465.53 981.839 1494.69 1034.84 1494.69C1093.2 1494.69 1129.45 1461.91 1129.45 1409.13C1129.44 1346.8 1081.54 1330.59 1049.84 1319.88Z" fill="#57565C"/>
<path d="M786.039 1426.84C785.94 1426.77 785.825 1426.72 785.726 1426.66C784.962 1426.19 784.225 1425.7 783.534 1425.18C783.339 1425.03 783.144 1424.88 782.942 1424.73C782.331 1424.26 781.72 1423.78 781.147 1423.28C780.857 1423.03 780.586 1422.78 780.307 1422.53C779.833 1422.1 779.348 1421.67 778.886 1421.23C778.168 1420.55 777.465 1419.85 776.759 1419.14C771.557 1413.98 763.697 1406.18 750.617 1406.18C731.277 1406.18 716.829 1423.74 716.829 1439.45C716.829 1441.03 716.989 1442.63 717.272 1444.23C717.371 1444.76 717.554 1445.3 717.68 1445.84C717.936 1446.9 718.177 1447.96 718.547 1449.02C718.78 1449.67 719.097 1450.32 719.372 1450.96C719.762 1451.9 720.148 1452.85 720.64 1453.79C721.003 1454.48 721.438 1455.17 721.847 1455.86C722.37 1456.74 722.89 1457.63 723.489 1458.5C723.974 1459.21 724.532 1459.91 725.078 1460.61C725.712 1461.44 726.358 1462.27 727.064 1463.09C727.679 1463.81 728.363 1464.51 729.031 1465.22C729.776 1466 730.524 1466.78 731.33 1467.54C732.082 1468.25 732.869 1468.94 733.675 1469.64C734.511 1470.36 735.359 1471.08 736.253 1471.79C737.124 1472.48 738.036 1473.16 738.968 1473.83C739.873 1474.5 740.813 1475.15 741.775 1475.79C742.784 1476.46 743.815 1477.13 744.861 1477.77C745.847 1478.37 746.851 1478.95 747.878 1479.53C749.005 1480.17 750.155 1480.79 751.335 1481.39C752.377 1481.92 753.443 1482.43 754.516 1482.94C755.773 1483.53 757.041 1484.11 758.343 1484.67C759.431 1485.12 760.554 1485.56 761.673 1485.99C763.048 1486.53 764.423 1487.06 765.84 1487.55C766.97 1487.94 768.147 1488.29 769.3 1488.65C770.793 1489.12 772.275 1489.58 773.803 1490C774.96 1490.31 776.159 1490.58 777.347 1490.86C778.951 1491.25 780.551 1491.65 782.205 1491.98C783.347 1492.21 784.55 1492.38 785.726 1492.59C787.468 1492.89 789.198 1493.21 790.993 1493.45C792.077 1493.59 793.196 1493.67 794.3 1493.79C796.236 1494 798.157 1494.23 800.136 1494.35C800.143 1494.35 800.147 1494.35 800.147 1494.35L800.155 1431.35C800.136 1431.35 800.12 1431.34 800.101 1431.34C793.987 1430.59 789.572 1428.97 786.039 1426.84Z" fill="#57565C"/>
<path d="M824.456 1319.88C822.844 1319.33 821.328 1318.81 819.877 1318.3C819.132 1318.05 818.445 1317.8 817.742 1317.55C817.074 1317.32 816.398 1317.08 815.756 1316.85C814.958 1316.56 814.205 1316.28 813.457 1316C813.018 1315.84 812.578 1315.68 812.154 1315.52C811.341 1315.21 810.566 1314.91 809.821 1314.62C809.561 1314.52 809.317 1314.42 809.061 1314.31C805.334 1312.82 802.42 1311.48 800.162 1310.22C800.151 1310.21 800.139 1310.21 800.132 1310.2L800.124 1310.19C796.882 1308.37 794.965 1306.66 793.872 1304.81C793.842 1304.76 793.819 1304.71 793.788 1304.66C793.563 1304.26 793.372 1303.86 793.215 1303.45C793.181 1303.36 793.15 1303.26 793.116 1303.17C792.986 1302.79 792.879 1302.4 792.791 1302C792.769 1301.88 792.738 1301.77 792.715 1301.65C792.643 1301.25 792.589 1300.84 792.555 1300.41C792.547 1300.29 792.524 1300.18 792.52 1300.06C792.478 1299.52 792.459 1298.96 792.459 1298.38C792.459 1297.98 792.467 1297.57 792.478 1297.14C792.478 1297.04 792.486 1296.95 792.49 1296.85C792.501 1296.45 792.532 1296.03 792.578 1295.61C792.585 1295.55 792.589 1295.49 792.597 1295.43C792.715 1294.43 792.963 1293.39 793.422 1292.37C793.433 1292.34 793.452 1292.31 793.464 1292.28C794.174 1290.73 795.427 1289.24 797.554 1287.95C797.6 1287.93 797.649 1287.9 797.691 1287.88C798.398 1287.46 799.192 1287.07 800.101 1286.71C800.109 1286.71 800.12 1286.7 800.124 1286.7C800.132 1286.7 800.132 1286.7 800.136 1286.69C801.912 1286 804.108 1285.43 806.796 1285.01C807.087 1284.97 807.4 1284.93 807.698 1284.89C808.752 1284.75 809.886 1284.63 811.085 1284.54C811.494 1284.51 811.891 1284.47 812.319 1284.45C813.923 1284.36 815.615 1284.29 817.486 1284.29C831.945 1284.29 839.599 1287.93 845.755 1290.84C850.923 1293.29 856.777 1296.06 864.549 1296.06C884.554 1296.06 897.986 1278.86 897.986 1262.79C897.986 1230.68 847.596 1222.11 817.826 1222.11C814.679 1222.11 811.628 1222.23 808.61 1222.4C805.723 1222.59 802.893 1222.85 800.113 1223.16C797.226 1223.5 794.407 1223.92 791.657 1224.42C791.474 1224.45 791.283 1224.49 791.096 1224.52C788.441 1225.01 785.856 1225.58 783.339 1226.22C783.091 1226.29 782.846 1226.35 782.606 1226.41C780.116 1227.06 777.698 1227.77 775.346 1228.57C775.139 1228.64 774.929 1228.72 774.723 1228.79C772.348 1229.62 770.026 1230.5 767.795 1231.46C767.73 1231.49 767.669 1231.52 767.616 1231.55C758.484 1235.52 750.628 1240.72 744.128 1247C743.88 1247.24 743.601 1247.46 743.356 1247.71C742.188 1248.86 741.122 1250.1 740.049 1251.33C739.488 1251.98 738.9 1252.61 738.361 1253.28C737.467 1254.39 736.642 1255.55 735.817 1256.72C735.203 1257.59 734.592 1258.46 734.015 1259.36C733.316 1260.47 732.659 1261.61 732.017 1262.75C731.437 1263.8 730.879 1264.86 730.352 1265.95C729.806 1267.06 729.291 1268.18 728.813 1269.33C728.298 1270.54 727.828 1271.79 727.385 1273.05C726.988 1274.15 726.598 1275.25 726.258 1276.39C725.83 1277.79 725.475 1279.24 725.131 1280.7C724.876 1281.76 724.597 1282.82 724.391 1283.91C724.058 1285.61 723.829 1287.35 723.608 1289.11C723.489 1290.03 723.329 1290.93 723.233 1291.87C722.978 1294.6 722.836 1297.39 722.836 1300.24C722.836 1353.99 766.856 1369.22 795.98 1379.29C797.42 1379.79 798.765 1380.26 800.098 1380.74C800.105 1380.74 800.117 1380.74 800.128 1380.74C801.602 1381.27 803.008 1381.77 804.371 1382.28C804.638 1382.38 804.921 1382.47 805.185 1382.57C806.407 1383.03 807.568 1383.47 808.698 1383.91C809.034 1384.04 809.378 1384.17 809.71 1384.3C810.753 1384.71 811.742 1385.11 812.704 1385.51C813.067 1385.66 813.426 1385.81 813.778 1385.95C814.668 1386.34 815.527 1386.71 816.348 1387.09C816.703 1387.25 817.055 1387.41 817.398 1387.57C818.174 1387.94 818.914 1388.3 819.632 1388.66C819.957 1388.83 820.274 1389 820.587 1389.16C821.263 1389.52 821.909 1389.88 822.52 1390.24C822.818 1390.42 823.112 1390.59 823.39 1390.76C823.971 1391.12 824.529 1391.48 825.044 1391.83C825.311 1392.02 825.571 1392.2 825.827 1392.4C826.312 1392.75 826.786 1393.12 827.225 1393.48C827.462 1393.68 827.679 1393.88 827.901 1394.08C828.31 1394.45 828.714 1394.82 829.073 1395.2C829.276 1395.42 829.463 1395.63 829.662 1395.85C829.998 1396.23 830.318 1396.61 830.616 1397C830.796 1397.24 830.949 1397.49 831.109 1397.73C831.376 1398.12 831.644 1398.51 831.869 1398.91C832.018 1399.18 832.14 1399.46 832.27 1399.73C832.472 1400.14 832.671 1400.54 832.843 1400.97C832.969 1401.28 833.061 1401.61 833.167 1401.93C833.305 1402.34 833.458 1402.75 833.569 1403.17C833.664 1403.55 833.729 1403.96 833.817 1404.35C833.901 1404.75 833.996 1405.15 834.061 1405.57C834.138 1406.07 834.187 1406.6 834.233 1407.13C834.267 1407.47 834.321 1407.81 834.344 1408.17C834.409 1409.08 834.439 1410.03 834.439 1411.01C834.439 1421.59 832.4 1431.9 808.06 1431.9C806.265 1431.9 804.654 1431.81 803.099 1431.68C802.068 1431.61 801.079 1431.51 800.132 1431.39C800.124 1431.39 800.113 1431.39 800.109 1431.39V1494.4C803.16 1494.6 806.258 1494.72 809.412 1494.72C867.773 1494.72 904.024 1461.93 904.024 1409.16C904.051 1346.8 856.151 1330.59 824.456 1319.88Z" fill="#57565C"/>
<path d="M800.121 1494.37C798.142 1494.24 796.221 1494.01 794.285 1493.8C793.181 1493.68 792.062 1493.6 790.978 1493.46C789.183 1493.23 787.456 1492.91 785.711 1492.6C784.538 1492.4 783.339 1492.23 782.19 1491.99C780.536 1491.66 778.936 1491.27 777.332 1490.88C776.148 1490.59 774.949 1490.32 773.788 1490.01C772.26 1489.6 770.778 1489.13 769.285 1488.67C768.128 1488.31 766.955 1487.95 765.825 1487.56C764.408 1487.07 763.033 1486.54 761.658 1486.01C760.539 1485.57 759.42 1485.14 758.328 1484.68C757.018 1484.13 755.761 1483.54 754.505 1482.95C753.428 1482.44 752.366 1481.94 751.323 1481.41C750.143 1480.8 748.994 1480.17 747.867 1479.54C746.843 1478.97 745.835 1478.38 744.85 1477.78C743.796 1477.14 742.765 1476.48 741.764 1475.81C740.805 1475.16 739.874 1474.51 738.957 1473.85C738.025 1473.17 737.112 1472.5 736.242 1471.8C735.352 1471.1 734.5 1470.38 733.664 1469.65C732.858 1468.96 732.075 1468.26 731.322 1467.55C730.517 1466.79 729.772 1466.01 729.023 1465.24C728.355 1464.53 727.671 1463.83 727.057 1463.11C726.346 1462.29 725.705 1461.46 725.071 1460.62C724.524 1459.92 723.967 1459.22 723.482 1458.51C722.871 1457.64 722.363 1456.76 721.84 1455.87C721.431 1455.19 720.992 1454.5 720.629 1453.81C720.136 1452.87 719.758 1451.92 719.361 1450.98C719.09 1450.33 718.769 1449.68 718.536 1449.04C718.162 1447.97 717.921 1446.91 717.669 1445.85C717.543 1445.31 717.356 1444.78 717.26 1444.24C716.978 1442.64 716.817 1441.04 716.817 1439.46C716.817 1423.76 731.265 1406.19 750.605 1406.19C763.69 1406.19 771.546 1413.99 776.747 1419.16C777.458 1419.86 778.164 1420.55 778.875 1421.24C779.344 1421.68 779.818 1422.11 780.295 1422.55C780.574 1422.8 780.845 1423.05 781.136 1423.29C781.716 1423.79 782.316 1424.27 782.931 1424.75C783.125 1424.9 783.32 1425.05 783.523 1425.19C784.221 1425.71 784.943 1426.2 785.715 1426.67C785.814 1426.74 785.929 1426.79 786.028 1426.86C789.584 1428.97 793.976 1430.61 800.071 1431.37C800.09 1431.38 800.105 1431.38 800.124 1431.38V1380.72C798.784 1380.25 797.447 1379.77 796.007 1379.28C766.883 1369.2 722.863 1353.98 722.863 1300.23C722.863 1297.37 723.004 1294.58 723.26 1291.86C723.356 1290.92 723.516 1290.02 723.635 1289.1C723.852 1287.35 724.085 1285.59 724.417 1283.9C724.624 1282.8 724.902 1281.75 725.158 1280.68C725.51 1279.23 725.857 1277.78 726.285 1276.37C726.629 1275.24 727.018 1274.14 727.416 1273.03C727.859 1271.78 728.328 1270.53 728.844 1269.31C729.325 1268.17 729.841 1267.05 730.383 1265.93C730.91 1264.85 731.471 1263.79 732.048 1262.74C732.682 1261.59 733.347 1260.45 734.046 1259.35C734.618 1258.45 735.229 1257.58 735.848 1256.71C736.673 1255.54 737.49 1254.38 738.392 1253.27C738.93 1252.59 739.518 1251.96 740.08 1251.31C741.153 1250.08 742.219 1248.85 743.387 1247.69C743.632 1247.45 743.91 1247.23 744.159 1246.98C750.651 1240.7 758.522 1235.52 767.646 1231.53C767.707 1231.51 767.765 1231.48 767.826 1231.45C770.052 1230.48 772.378 1229.6 774.754 1228.78C774.96 1228.71 775.17 1228.63 775.376 1228.56C777.729 1227.76 780.146 1227.06 782.637 1226.4C782.881 1226.34 783.122 1226.28 783.37 1226.21C785.887 1225.57 788.465 1225 791.127 1224.51C791.31 1224.48 791.501 1224.44 791.688 1224.41C794.438 1223.92 797.252 1223.49 800.143 1223.16V927.273H177.974H89.0951C40.0076 927.273 0.212097 963.905 0.212097 1009.09V1718.18C0.212097 1720.46 0.338125 1722.7 0.536721 1724.92C0.601646 1725.63 0.700939 1726.33 0.78496 1727.03C0.956822 1728.55 1.1707 1730.07 1.43804 1731.57C1.57935 1732.35 1.73594 1733.13 1.90016 1733.9C2.20952 1735.34 2.55323 1736.77 2.94279 1738.18C3.13756 1738.91 3.32087 1739.63 3.54238 1740.34C4.05033 1742.02 4.62703 1743.66 5.24955 1745.29C5.3985 1745.69 5.52834 1746.11 5.68874 1746.5C6.48695 1748.51 7.38445 1750.47 8.3507 1752.4C8.62186 1752.94 8.9312 1753.46 9.21763 1754.01C9.94709 1755.39 10.7109 1756.75 11.5244 1758.08C11.9292 1758.75 12.3532 1759.4 12.7733 1760.05C13.56 1761.26 14.3659 1762.44 15.2137 1763.6C15.6682 1764.23 16.1188 1764.86 16.5962 1765.47C17.551 1766.71 18.5593 1767.92 19.5904 1769.11C19.9953 1769.58 20.3772 1770.06 20.7935 1770.51C22.2524 1772.12 23.7686 1773.69 25.3497 1775.19C25.6705 1775.5 26.0142 1775.77 26.3465 1776.08C27.6374 1777.27 28.9588 1778.42 30.3337 1779.54C30.9257 1780.02 31.5291 1780.47 32.1363 1780.93C33.3165 1781.84 34.508 1782.72 35.7378 1783.57C36.4023 1784.03 37.0707 1784.49 37.7467 1784.93C39.0375 1785.77 40.3551 1786.57 41.6995 1787.35C42.3143 1787.71 42.9216 1788.08 43.5479 1788.43C45.511 1789.51 47.5046 1790.54 49.5631 1791.47C49.5745 1791.48 49.586 1791.49 49.6051 1791.5C49.586 1791.49 49.5745 1791.49 49.5631 1791.47C56.3306 1794.57 63.5832 1796.91 71.1909 1798.34C76.9731 1799.43 82.9577 1800 89.0989 1800H800.155V1494.38C800.136 1494.37 800.132 1494.37 800.121 1494.37ZM669.918 1404.5C669.918 1459.62 634.794 1492.53 575.96 1492.53H516.48C497.843 1492.53 482.692 1479.28 482.692 1462.98V1251.95C482.692 1235.56 497.537 1222.72 516.48 1222.72H575.96C634.794 1222.72 669.918 1255.52 669.918 1310.44V1404.5Z" fill="#FF9811"/>
<path d="M717.684 1445.84C717.558 1445.3 717.371 1444.77 717.275 1444.23C717.375 1444.77 717.558 1445.31 717.684 1445.84Z" fill="#FF9811"/>
<path d="M782.946 1424.74C783.141 1424.89 783.336 1425.03 783.538 1425.18C783.339 1425.03 783.141 1424.88 782.946 1424.74Z" fill="#FF9811"/>
<path d="M767.826 1231.45C770.052 1230.49 772.378 1229.6 774.754 1228.78C772.374 1229.6 770.052 1230.48 767.826 1231.45Z" fill="#FF9811"/>
<path d="M775.38 1228.56C777.733 1227.77 780.15 1227.05 782.641 1226.41C780.143 1227.05 777.725 1227.77 775.38 1228.56Z" fill="#FF9811"/>
<path d="M783.366 1226.21C785.883 1225.57 788.461 1225 791.123 1224.51C788.468 1225 785.886 1225.57 783.366 1226.21Z" fill="#FF9811"/>
<path d="M780.315 1422.54C780.593 1422.79 780.865 1423.04 781.155 1423.29C780.861 1423.04 780.59 1422.79 780.315 1422.54Z" fill="#FF9811"/>
<path d="M719.372 1450.97C719.101 1450.32 718.78 1449.68 718.547 1449.03C718.784 1449.68 719.105 1450.33 719.372 1450.97Z" fill="#FF9811"/>
<path d="M728.855 1269.31C729.337 1268.17 729.852 1267.05 730.395 1265.93C729.848 1267.05 729.333 1268.17 728.855 1269.31Z" fill="#FF9811"/>
<path d="M724.429 1283.89C724.635 1282.8 724.914 1281.75 725.17 1280.68C724.914 1281.75 724.635 1282.8 724.429 1283.89Z" fill="#FF9811"/>
<path d="M726.292 1276.37C726.636 1275.24 727.022 1274.14 727.423 1273.03C727.03 1274.14 726.636 1275.24 726.292 1276.37Z" fill="#FF9811"/>
<path d="M744.159 1246.99C750.659 1240.72 758.515 1235.51 767.646 1231.54C758.522 1235.52 750.655 1240.7 744.159 1246.99Z" fill="#FF9811"/>
<path d="M735.856 1256.71C736.681 1255.55 737.498 1254.38 738.399 1253.27C737.498 1254.38 736.673 1255.55 735.856 1256.71Z" fill="#FF9811"/>
<path d="M785.734 1426.66C785.832 1426.72 785.938 1426.77 786.044 1426.84C785.942 1426.78 785.825 1426.72 785.734 1426.66Z" fill="#FF9811"/>
<path d="M740.087 1251.32C741.161 1250.09 742.222 1248.86 743.395 1247.7C742.226 1248.86 741.153 1250.09 740.087 1251.32Z" fill="#FF9811"/>
<path d="M723.279 1291.85C723.375 1290.91 723.535 1290.01 723.654 1289.09C723.531 1290.01 723.367 1290.91 723.279 1291.85Z" fill="#FF9811"/>
<path d="M732.06 1262.75C732.701 1261.6 733.358 1260.46 734.057 1259.35C733.358 1260.46 732.694 1261.6 732.06 1262.75Z" fill="#FF9811"/>
<path d="M782.194 1492C780.54 1491.66 778.94 1491.27 777.336 1490.88C778.94 1491.27 780.54 1491.66 782.194 1492Z" fill="#FF9811"/>
<path d="M790.978 1493.46C789.183 1493.23 787.452 1492.91 785.711 1492.6C787.464 1492.91 789.186 1493.22 790.978 1493.46Z" fill="#FF9811"/>
<path d="M758.339 1484.68C757.037 1484.13 755.769 1483.54 754.516 1482.95C755.773 1483.55 757.029 1484.13 758.339 1484.68Z" fill="#FF9811"/>
<path d="M765.828 1487.56C764.411 1487.07 763.037 1486.54 761.662 1486.01C763.044 1486.55 764.411 1487.07 765.828 1487.56Z" fill="#FF9811"/>
<path d="M773.791 1490.01C772.264 1489.6 770.782 1489.13 769.289 1488.67C770.782 1489.13 772.264 1489.6 773.791 1490.01Z" fill="#FF9811"/>
<path d="M796.019 1379.27C797.459 1379.77 798.803 1380.24 800.136 1380.72C798.803 1380.24 797.459 1379.77 796.019 1379.27Z" fill="#FF9811"/>
<path d="M800.136 1223.16C797.245 1223.49 794.43 1223.92 791.68 1224.41C794.43 1223.92 797.252 1223.49 800.136 1223.16Z" fill="#FF9811"/>
<path d="M800.121 1494.37C798.142 1494.24 796.221 1494.01 794.285 1493.8C796.221 1494.01 798.138 1494.24 800.121 1494.37Z" fill="#FF9811"/>
<path d="M800.133 1431.36L800.082 1431.36L800.133 1431.36Z" fill="#FF9811"/>
<path d="M733.671 1469.66C732.865 1468.97 732.082 1468.27 731.33 1467.56C732.082 1468.27 732.869 1468.96 733.671 1469.66Z" fill="#FF9811"/>
<path d="M778.89 1421.23C778.18 1420.55 777.473 1419.85 776.763 1419.15C777.466 1419.85 778.172 1420.55 778.89 1421.23Z" fill="#FF9811"/>
<path d="M729.031 1465.24C728.363 1464.53 727.679 1463.83 727.064 1463.11C727.687 1463.83 728.363 1464.53 729.031 1465.24Z" fill="#FF9811"/>
<path d="M725.078 1460.63C724.532 1459.92 723.975 1459.22 723.49 1458.52C723.982 1459.22 724.532 1459.92 725.078 1460.63Z" fill="#FF9811"/>
<path d="M738.961 1473.85C738.029 1473.18 737.116 1472.5 736.245 1471.8C737.124 1472.5 738.033 1473.18 738.961 1473.85Z" fill="#FF9811"/>
<path d="M744.857 1477.79C743.803 1477.14 742.772 1476.48 741.771 1475.81C742.78 1476.48 743.803 1477.14 744.857 1477.79Z" fill="#FF9811"/>
<path d="M721.851 1455.87C721.442 1455.19 721.003 1454.5 720.644 1453.81C721.003 1454.5 721.442 1455.18 721.851 1455.87Z" fill="#FF9811"/>
<path d="M751.327 1481.41C750.147 1480.8 748.998 1480.17 747.871 1479.54C749.001 1480.18 750.151 1480.8 751.327 1481.41Z" fill="#FF9811"/>
<path d="M797.703 1287.88C797.657 1287.9 797.607 1287.93 797.565 1287.95C795.438 1289.24 794.201 1290.74 793.475 1292.29C793.464 1292.31 793.445 1292.34 793.433 1292.37C792.971 1293.4 792.734 1294.43 792.608 1295.43C792.601 1295.49 792.597 1295.55 792.589 1295.61C792.543 1296.03 792.513 1296.45 792.501 1296.85C792.494 1296.95 792.49 1297.05 792.49 1297.14C792.478 1297.57 792.471 1297.98 792.471 1298.38C792.471 1298.96 792.49 1299.52 792.532 1300.06C792.539 1300.18 792.562 1300.29 792.566 1300.41C792.608 1300.84 792.654 1301.25 792.727 1301.65C792.75 1301.77 792.78 1301.89 792.803 1302C792.891 1302.4 792.994 1302.79 793.128 1303.17C793.162 1303.26 793.193 1303.36 793.227 1303.45C793.38 1303.86 793.578 1304.26 793.8 1304.66C793.83 1304.71 793.853 1304.76 793.884 1304.81C794.988 1306.66 796.889 1308.37 800.136 1310.19C800.136 1310.19 800.136 1310.19 800.143 1310.2V1286.7C800.136 1286.71 800.124 1286.71 800.12 1286.71C799.208 1287.07 798.406 1287.46 797.703 1287.88Z" fill="#ECB45C"/>
<path d="M793.131 1303.17C793.166 1303.26 793.196 1303.36 793.231 1303.45C793.193 1303.35 793.17 1303.26 793.131 1303.17Z" fill="#ECB45C"/>
<path d="M793.471 1292.28C793.46 1292.31 793.441 1292.34 793.429 1292.37C793.441 1292.34 793.46 1292.31 793.471 1292.28Z" fill="#ECB45C"/>
<path d="M792.612 1295.43C792.604 1295.49 792.601 1295.55 792.593 1295.61C792.601 1295.54 792.604 1295.49 792.612 1295.43Z" fill="#ECB45C"/>
<path d="M797.702 1287.88C797.657 1287.9 797.607 1287.92 797.566 1287.95C797.611 1287.92 797.653 1287.9 797.702 1287.88Z" fill="#ECB45C"/>
<path d="M792.505 1296.85C792.497 1296.95 792.494 1297.05 792.494 1297.14C792.494 1297.05 792.497 1296.94 792.505 1296.85Z" fill="#ECB45C"/>
<path d="M793.804 1304.66C793.834 1304.71 793.857 1304.76 793.887 1304.81C793.857 1304.76 793.83 1304.71 793.804 1304.66Z" fill="#ECB45C"/>
<path d="M792.73 1301.65C792.753 1301.76 792.784 1301.88 792.807 1302C792.784 1301.88 792.753 1301.77 792.73 1301.65Z" fill="#ECB45C"/>
<path d="M800.135 1310.2L800.132 1310.2L800.135 1310.2Z" fill="#ECB45C"/>
<path d="M792.536 1300.05C792.543 1300.17 792.566 1300.29 792.57 1300.41C792.562 1300.29 792.539 1300.17 792.536 1300.05Z" fill="#ECB45C"/>
<path d="M800.113 1286.71L800.134 1286.7L800.113 1286.71Z" fill="#ECB45C"/>
<path d="M815.756 1316.85C816.39 1317.07 817.07 1317.31 817.742 1317.55C817.066 1317.31 816.39 1317.07 815.756 1316.85Z" fill="#ECB45C"/>
<path d="M807.717 1284.89C807.415 1284.93 807.102 1284.97 806.816 1285.01C807.098 1284.97 807.415 1284.94 807.717 1284.89Z" fill="#ECB45C"/>
<path d="M809.065 1314.31C809.321 1314.42 809.561 1314.51 809.825 1314.62C809.565 1314.51 809.321 1314.41 809.065 1314.31Z" fill="#ECB45C"/>
<path d="M812.158 1315.51C812.579 1315.67 813.018 1315.84 813.461 1316C813.014 1315.84 812.579 1315.67 812.158 1315.51Z" fill="#ECB45C"/>
<path d="M800.166 1310.21L800.136 1310.2L800.166 1310.21Z" fill="#ECB45C"/>
<path d="M808.633 1222.4C805.735 1222.56 802.916 1222.84 800.136 1223.16C802.916 1222.84 805.75 1222.58 808.633 1222.4Z" fill="#ECB45C"/>
<path d="M819.873 1318.3C821.321 1318.81 822.841 1319.33 824.452 1319.87C822.837 1319.33 821.332 1318.81 819.873 1318.3Z" fill="#ECB45C"/>
<path d="M812.338 1284.45C811.91 1284.47 811.513 1284.51 811.104 1284.54C811.513 1284.51 811.91 1284.47 812.338 1284.45Z" fill="#ECB45C"/>
<path d="M800.136 1286.7L800.144 1286.69L800.136 1286.7Z" fill="#ECB45C"/>
<path d="M803.13 1431.66C804.711 1431.77 806.296 1431.88 808.091 1431.88C832.434 1431.88 834.47 1421.56 834.47 1410.99C834.47 1410 834.436 1409.05 834.374 1408.15C834.352 1407.79 834.298 1407.46 834.264 1407.1C834.21 1406.58 834.164 1406.05 834.092 1405.55C834.027 1405.12 833.931 1404.73 833.847 1404.32C833.763 1403.93 833.695 1403.53 833.599 1403.15C833.481 1402.72 833.332 1402.31 833.198 1401.89C833.099 1401.57 832.996 1401.24 832.874 1400.94C832.709 1400.52 832.499 1400.11 832.301 1399.7C832.163 1399.43 832.045 1399.15 831.9 1398.89C831.674 1398.48 831.407 1398.08 831.14 1397.7C830.979 1397.46 830.826 1397.21 830.647 1396.97C830.349 1396.58 830.024 1396.2 829.692 1395.82C829.501 1395.61 829.314 1395.39 829.104 1395.17C828.741 1394.8 828.34 1394.42 827.932 1394.06C827.714 1393.85 827.492 1393.65 827.256 1393.45C826.816 1393.09 826.343 1392.73 825.858 1392.37C825.598 1392.18 825.342 1391.99 825.075 1391.81C824.552 1391.45 823.998 1391.09 823.421 1390.74C823.139 1390.56 822.848 1390.38 822.55 1390.21C821.936 1389.85 821.294 1389.5 820.618 1389.14C820.305 1388.97 819.992 1388.8 819.663 1388.63C818.945 1388.28 818.204 1387.91 817.429 1387.54C817.085 1387.39 816.734 1387.22 816.379 1387.06C815.55 1386.69 814.706 1386.31 813.808 1385.93C813.457 1385.79 813.098 1385.64 812.735 1385.49C811.777 1385.09 810.787 1384.69 809.741 1384.28C809.409 1384.15 809.065 1384.02 808.729 1383.88C807.602 1383.45 806.441 1383.01 805.215 1382.55C804.956 1382.45 804.669 1382.36 804.402 1382.26C803.038 1381.75 801.641 1381.25 800.159 1380.72C800.147 1380.72 800.136 1380.72 800.128 1380.72V1431.37C800.136 1431.37 800.147 1431.37 800.151 1431.37C801.114 1431.49 802.114 1431.57 803.13 1431.66Z" fill="#ECB45C"/>
<path d="M834.378 1408.14C834.439 1409.05 834.474 1409.99 834.474 1410.98C834.47 1410 834.439 1409.05 834.378 1408.14Z" fill="#ECB45C"/>
<path d="M816.378 1387.06C816.734 1387.22 817.085 1387.39 817.429 1387.54C817.085 1387.38 816.726 1387.22 816.378 1387.06Z" fill="#ECB45C"/>
<path d="M830.647 1396.97C830.826 1397.2 830.979 1397.45 831.14 1397.69C830.971 1397.45 830.826 1397.2 830.647 1396.97Z" fill="#ECB45C"/>
<path d="M827.252 1393.45C827.488 1393.64 827.706 1393.84 827.928 1394.05C827.714 1393.85 827.488 1393.64 827.252 1393.45Z" fill="#ECB45C"/>
<path d="M831.896 1398.88C832.045 1399.15 832.167 1399.43 832.297 1399.7C832.171 1399.43 832.045 1399.15 831.896 1398.88Z" fill="#ECB45C"/>
<path d="M833.603 1403.15C833.698 1403.52 833.767 1403.93 833.851 1404.32C833.763 1403.93 833.691 1403.52 833.603 1403.15Z" fill="#ECB45C"/>
<path d="M808.729 1383.88C809.065 1384.01 809.409 1384.14 809.741 1384.27C809.416 1384.15 809.065 1384.01 808.729 1383.88Z" fill="#ECB45C"/>
<path d="M804.409 1382.26C804.677 1382.36 804.959 1382.46 805.223 1382.56C804.959 1382.46 804.677 1382.36 804.409 1382.26Z" fill="#ECB45C"/>
<path d="M822.546 1390.21C822.848 1390.38 823.138 1390.56 823.417 1390.73C823.135 1390.56 822.837 1390.38 822.546 1390.21Z" fill="#ECB45C"/>
<path d="M834.096 1405.54C834.172 1406.04 834.214 1406.57 834.267 1407.09C834.214 1406.58 834.168 1406.04 834.096 1405.54Z" fill="#ECB45C"/>
<path d="M812.735 1385.48C813.098 1385.63 813.457 1385.78 813.808 1385.93C813.457 1385.78 813.094 1385.64 812.735 1385.48Z" fill="#ECB45C"/>
<path d="M819.656 1388.63C819.98 1388.8 820.297 1388.96 820.61 1389.13C820.301 1388.97 819.98 1388.8 819.656 1388.63Z" fill="#ECB45C"/>
<path d="M832.873 1400.94C832.999 1401.25 833.091 1401.58 833.198 1401.89C833.095 1401.58 832.992 1401.25 832.873 1400.94Z" fill="#ECB45C"/>
<path d="M808.087 1431.87C806.292 1431.87 804.711 1431.77 803.126 1431.65C804.681 1431.78 806.292 1431.87 808.087 1431.87Z" fill="#ECB45C"/>
<path d="M825.071 1391.81C825.338 1391.99 825.594 1392.17 825.854 1392.37C825.598 1392.18 825.338 1391.99 825.071 1391.81Z" fill="#ECB45C"/>
<path d="M829.108 1395.17C829.31 1395.38 829.497 1395.6 829.696 1395.82C829.497 1395.6 829.306 1395.38 829.108 1395.17Z" fill="#ECB45C"/>
<path d="M800.136 1380.72L800.166 1380.72L800.136 1380.72Z" fill="#ECB45C"/>
</svg>
