<svg width="1400" height="1400" viewBox="0 0 1400 1400" fill="none" xmlns="http://www.w3.org/2000/svg">
<rect width="1400" height="1400" fill="#FF9811"/>
<path d="M1400 1086.21V1351.72C1399.92 1378.35 1378.35 1399.92 1351.72 1400H48.2759C21.6469 1399.92 0.0795297 1378.35 0 1351.72V1086.21H1400Z" fill="#FF9811"/>
<path d="M1400 48.2759V1110.34H0V48.2759C0.0795297 21.6469 21.6469 0.0795297 48.2759 0H1351.72C1378.35 0.0795297 1399.92 21.6469 1400 48.2759Z" fill="#CBB292"/>
<path d="M349.759 0C187.556 61.5422 59.9798 190.351 0 353.138V241.138C55.8652 141.371 137.148 58.1734 235.586 0L349.759 0Z" fill="#E57E25"/>
<path d="M1400 748.517V860.276C1338.98 961.943 1254.68 1047.65 1154.03 1110.34H1058.93C1194.83 1037.69 1332.9 924 1400 748.517V748.517Z" fill="#E57E25"/>
<path d="M1400 182.241V289.655C1387.21 261.414 1374.66 234.621 1360.17 209.517C1309.8 118.492 1232.48 45.2997 1138.83 0H1234.9C1302.44 48.1228 1358.76 110.293 1400 182.241Z" fill="#E57E25"/>
<path d="M1322.76 559.759C1313.82 673.376 1268.74 781.145 1194.1 867.276C1146.07 926.195 1085.67 973.826 1017.17 1006.79C980.947 1021.98 942.603 1031.5 903.483 1035.03C875.985 1037.77 848.821 1043.18 822.379 1051.21C793.654 1062.89 767.126 1079.38 743.931 1099.97L730.655 1110.34H636.759C665.1 1098.83 691.234 1082.5 714 1062.07C741.532 1038.02 772.959 1018.84 806.931 1005.34C836.213 996.448 866.282 990.386 896.724 987.241C930.969 984.346 964.578 976.289 996.414 963.345C1058.5 933.382 1113.28 890.214 1156.93 836.862C1224.9 758.408 1266.08 660.323 1274.48 556.862C1276.76 519.238 1273.91 481.48 1266.03 444.621C1264.1 434.966 1261.69 425.552 1259.03 416.138C1241.08 351.946 1208.63 292.734 1164.17 243.069C1095.55 160.792 991.824 116.146 884.897 122.862C839.053 130.441 795.067 146.66 755.276 170.655C713.978 194.453 667.04 206.709 619.379 206.138C604.172 205.414 589.207 203.966 574 202.517C549.541 199.056 524.793 198.085 500.138 199.621C307.441 217.108 152.986 366.538 129.138 558.552C124.65 589.231 123.034 620.262 124.31 651.241C131.917 848.815 248.767 1025.76 427.483 1110.34H329C147.788 985.707 52.0442 769.77 81.3448 551.793C108.241 337.51 280.712 170.864 495.793 151.345C523.587 149.584 551.487 150.635 579.069 154.483C593.069 155.931 607.31 157.379 621.31 157.862C660.636 158.328 699.321 147.883 733.069 127.69C778.257 100.641 828.26 82.6074 880.31 74.5862C1002.43 66.5692 1121.07 117.111 1199.9 210.724C1285.42 306.226 1329.61 431.739 1322.76 559.759V559.759Z" fill="#E57E25"/>
<path d="M1202.07 448.483C1201.1 443.172 1199.9 437.621 1198.45 432.31C1180.45 365.555 1139.29 307.377 1082.34 268.172C1010.46 215.228 916.26 203.35 833.483 236.793C813.03 245.844 793.123 256.079 773.862 267.448C757.448 276.621 742.241 285.31 726.31 292.552C685.092 307.911 640.577 312.238 597.172 305.103C577.602 303.14 557.944 302.173 538.276 302.207C369.935 300.311 225.113 420.894 196.483 586.793C193.471 607.649 192.34 628.734 193.103 649.793C200.586 804.276 319.103 922.069 439.31 970.586C464.423 980.571 491.217 985.651 518.241 985.552C551.201 985.278 583.805 978.725 614.31 966.241C645.754 951.829 674.813 932.701 700.483 909.517C732.828 882.966 763.483 857.862 804.276 853.517L832.517 850.621C881.814 848.866 930.421 838.491 976.138 819.966C1027.78 795.878 1073.82 761.264 1111.31 718.345C1170.93 649.552 1203.03 579.793 1206.66 511C1207.79 490.051 1206.25 469.042 1202.07 448.483V448.483ZM1074.86 686.483C1041.9 724.336 1001.36 754.845 955.862 776.035C915.057 792.157 871.782 801.139 827.931 802.586L798.965 805.483C744.172 811.517 706.276 842.414 669.828 872.345C647.834 892.214 623.026 908.726 596.207 921.345C552.286 940.867 502.47 942.427 457.414 925.69C338.172 877.655 220.621 753.345 244.034 593.793C264.069 457.897 393.448 350.966 538.517 350.483H539.724C557.828 350.483 575.931 351.931 593.552 353.138C645.059 361.196 697.783 355.448 746.345 336.483C763.966 328.276 780.862 318.862 797.517 309.69C815.278 299.107 833.656 289.596 852.552 281.207C919.937 254.363 996.425 264.415 1054.59 307.759C1121.28 352.412 1160.45 428.113 1158.38 508.345C1154.76 580.517 1110.83 645.207 1074.86 686.483V686.483Z" fill="#D25627"/>
<path d="M958.034 396.828C902.517 385.724 858.586 409.621 819.483 430.862C793.803 447.733 764.548 458.394 734.034 462C702.324 461.41 670.832 456.621 640.379 447.759C611.723 439.821 582.389 434.568 552.759 432.069C466.103 427.241 390.31 453.552 349.759 502.793C315.817 546.41 305.859 604.078 323.207 656.552C342.034 731.138 398.034 795.586 459.103 813.69C471.058 817.417 483.513 819.29 496.034 819.241C531.461 818.553 565.227 804.095 590.172 778.931C597.897 771.69 605.621 763.966 613.345 756.241C654.379 715.448 681.897 690.828 727.517 701.207C737.897 703.379 748.034 706.035 757.931 708.448C808.621 721.241 860.759 734.276 917.965 711.103C991.586 680.931 1070.28 603.931 1070.28 520.414C1067.61 457.52 1020.38 405.514 958.034 396.828V396.828ZM899.621 666.448C857.138 683.828 816.586 673.448 769.759 661.621C759.379 658.966 748.759 656.31 738.138 653.897C664.034 637.483 619.138 682.379 579.31 722.207C572.069 729.448 564.828 736.69 557.345 743.69C535.829 766.763 503.276 775.971 472.862 767.586C427.966 754.31 384.517 702.655 369.793 644.724C356.785 607.044 363.295 565.367 387.172 533.448C415.172 499.414 468.517 479.862 532.241 479.862C538.034 479.862 544.069 479.862 550.103 480.345C576.777 482.796 603.187 487.561 629.034 494.586C663.81 504.605 699.778 509.882 735.966 510.276C773.954 506.599 810.523 493.94 842.655 473.345C878.862 453.552 910.241 436.414 948.862 444.138C988.215 449.062 1018.73 480.889 1022 520.414C1022 579.793 958.517 642.31 899.621 666.448Z" fill="#E64C3C"/>
<path d="M558.069 530.069C516.398 518.581 471.75 527.439 437.621 553.966C409.754 582.567 403.069 625.682 420.966 661.379C431.751 691.64 459.405 712.665 491.448 714.966C493.302 715.001 495.156 714.92 497 714.724C514.376 712.673 530.501 704.654 542.621 692.034L582.207 654.138C598.079 641.401 608.309 622.935 610.69 602.724C612.584 569.096 590.611 538.756 558.069 530.069V530.069ZM548.897 619.379L509.069 657.276C504.795 662.15 499.02 665.462 492.655 666.69C482.759 667.172 471.897 657.517 465.138 642.069C456.137 625.329 457.939 604.842 469.724 589.931C484.717 578.663 503.118 572.87 521.862 573.517C529.618 573.441 537.343 574.498 544.793 576.655C554.875 579.025 562.165 587.792 562.655 598.138C561.931 605.621 559.034 609.483 548.897 619.379Z" fill="#C03A2B"/>
<path d="M627.586 1231.03H241.379C228.048 1231.03 217.241 1220.23 217.241 1206.9C217.241 1193.57 228.048 1182.76 241.379 1182.76H627.586C640.917 1182.76 651.724 1193.57 651.724 1206.9C651.724 1220.23 640.917 1231.03 627.586 1231.03Z" fill="#ECB45C"/>
<path d="M144.828 1231.03H96.5517C83.2207 1231.03 72.4138 1220.23 72.4138 1206.9C72.4138 1193.57 83.2207 1182.76 96.5517 1182.76H144.828C158.159 1182.76 168.966 1193.57 168.966 1206.9C168.966 1220.23 158.159 1231.03 144.828 1231.03Z" fill="#ECB45C"/>
<path d="M482.759 1327.59H96.5517C83.2207 1327.59 72.4138 1316.78 72.4138 1303.45C72.4138 1290.12 83.2207 1279.31 96.5517 1279.31H482.759C496.09 1279.31 506.897 1290.12 506.897 1303.45C506.897 1316.78 496.09 1327.59 482.759 1327.59Z" fill="#ECB45C"/>
<path d="M627.586 1327.59H579.31C565.979 1327.59 555.172 1316.78 555.172 1303.45C555.172 1290.12 565.979 1279.31 579.31 1279.31H627.586C640.917 1279.31 651.724 1290.12 651.724 1303.45C651.724 1316.78 640.917 1327.59 627.586 1327.59Z" fill="#ECB45C"/>
<path d="M1158.62 1231.03H772.414C759.083 1231.03 748.276 1220.23 748.276 1206.9C748.276 1193.57 759.083 1182.76 772.414 1182.76H1158.62C1171.95 1182.76 1182.76 1193.57 1182.76 1206.9C1182.76 1220.23 1171.95 1231.03 1158.62 1231.03Z" fill="#ECB45C"/>
<path d="M1303.45 1231.03H1255.17C1241.84 1231.03 1231.03 1220.23 1231.03 1206.9C1231.03 1193.57 1241.84 1182.76 1255.17 1182.76H1303.45C1316.78 1182.76 1327.59 1193.57 1327.59 1206.9C1327.59 1220.23 1316.78 1231.03 1303.45 1231.03Z" fill="#ECB45C"/>
<path d="M1303.45 1327.59H917.241C903.91 1327.59 893.103 1316.78 893.103 1303.45C893.103 1290.12 903.91 1279.31 917.241 1279.31H1303.45C1316.78 1279.31 1327.59 1290.12 1327.59 1303.45C1327.59 1316.78 1316.78 1327.59 1303.45 1327.59Z" fill="#ECB45C"/>
<path d="M820.69 1327.59H772.414C759.083 1327.59 748.276 1316.78 748.276 1303.45C748.276 1290.12 759.083 1279.31 772.414 1279.31H820.69C834.021 1279.31 844.828 1290.12 844.828 1303.45C844.828 1316.78 834.021 1327.59 820.69 1327.59Z" fill="#ECB45C"/>
</svg>
