<svg width="1401" height="1400" viewBox="0 0 1401 1400" fill="none" xmlns="http://www.w3.org/2000/svg">
<path d="M700.719 700C775.267 700 848.141 679.473 910.126 641.014C972.111 602.556 1020.42 547.893 1048.95 483.939C1077.48 419.985 1084.94 349.612 1070.4 281.718C1055.86 213.825 1019.96 151.461 967.244 102.513C914.53 53.5642 847.369 20.23 774.253 6.72513C701.137 -6.7797 625.35 0.151466 556.477 26.6421C487.603 53.1328 428.735 97.9932 387.319 155.55C345.902 213.108 323.796 280.776 323.796 350C323.796 442.826 363.507 531.85 434.194 597.487C504.881 663.125 600.753 700 700.719 700ZM700.719 800C467.094 800 0.71875 934 0.71875 1200V1400H1400.72V1200C1400.72 934 934.344 800 700.719 800Z" fill="#FF9811"/>
<path d="M700.719 700C775.267 700 848.141 679.473 910.126 641.014C972.111 602.556 1020.42 547.893 1048.95 483.939C1077.48 419.985 1084.94 349.612 1070.4 281.718C1055.86 213.825 1019.96 151.461 967.244 102.513C914.53 53.5642 847.369 20.23 774.253 6.72513C701.137 -6.7797 625.35 0.151466 556.477 26.6421C487.603 53.1328 428.735 97.9932 387.319 155.55C345.902 213.108 323.796 280.776 323.796 350C323.796 442.826 363.507 531.85 434.194 597.487C504.881 663.125 600.753 700 700.719 700ZM700.719 800C467.094 800 0.71875 934 0.71875 1200V1400H1400.72V1200C1400.72 934 934.344 800 700.719 800Z" fill="url(#paint0_linear)"/>
<defs>
<linearGradient id="paint0_linear" x1="700.719" y1="-0.000183105" x2="700.719" y2="1400" gradientUnits="userSpaceOnUse">
<stop offset="0.0076955" stop-color="#CCA568" stop-opacity="0.86"/>
<stop offset="1" stop-color="white" stop-opacity="0"/>
</linearGradient>
</defs>
</svg>
